<svg xmlns="http://www.w3.org/2000/svg" width="341.333" height="341.333" viewBox="0 0 256 256" xmlns:v="https://vecta.io/nano"><path d="M256 198.36c-9.312 2.367-15.07.105-20.238-7.656l-36.754-50.848-5.312-7.04-42.918 58.055c-4.906 6.984-10.05 10.023-19.203 7.555l54.96-73.777-51.168-66.64c8.8-1.71 14.88-.84 20.28 7.04l38.12 51.48 38.398-51.2c4.922-6.984 10.207-9.64 19.04-7.062l-19.84 26.3-26.88 35c-3.2 4-2.762 6.738.184 10.602zM.063 123.414l4.496-22.11C16.8 57.543 66.96 39.36 101.55 66.398 121.77 82.305 126.793 104.8 125.793 130H11.84c-1.71 45.36 30.938 72.734 72.56 58.77 14.602-4.906 23.203-16.336 27.504-30.64 2.188-7.168 5.8-8.29 12.54-6.242-3.44 17.89-11.203 32.832-27.602 42.184-24.504 14-59.48 9.473-77.88-9.98C8 172.8 3.473 158.496 1.44 143.2c-.32-2.527-.96-4.934-1.44-7.36l.063-12.414zm11.984-3.04h102.977c-.672-32.8-21.094-56.094-49.008-56.297-30.64-.238-52.64 22.508-53.97 56.297zm0 0" fill="rgb(0%,0%,0%)"/></svg>